<svg width="6" height="12" viewBox="0 0 6 12" fill="none" xmlns="http://www.w3.org/2000/svg">
<path d="M5.92578 5.94727C5.9077 5.88585 5.85197 5.79095 5.69629 5.59961C5.38784 5.22055 4.71825 4.49441 3.2998 2.94238C1.88104 1.39172 1.21621 0.660191 0.869141 0.323242C0.693577 0.152815 0.608508 0.0931316 0.554688 0.0742188C0.507828 0.0577911 0.490698 0.0705498 0.40332 0.0888672H0.402344C0.345585 0.100261 0.272727 0.148053 0.208008 0.21875C0.143895 0.288823 0.0982055 0.370069 0.0869141 0.436523V0.4375C0.0709715 0.528463 0.0580062 0.55718 0.0732422 0.612305C0.0896346 0.671297 0.140553 0.759368 0.282227 0.935547C0.563926 1.28579 1.17497 1.94901 2.46582 3.36328L4.84277 5.96094L4.88379 6.00586L4.84277 6.05078L2.48145 8.63477C1.82033 9.35735 1.22591 10.0129 0.794922 10.4941C0.579438 10.7348 0.404991 10.9321 0.283203 11.0723C0.222406 11.1422 0.17521 11.1978 0.142578 11.2373C0.126259 11.2571 0.113716 11.2723 0.105469 11.2832C0.102373 11.2873 0.100225 11.2907 0.0986328 11.293C0.0621639 11.406 0.0677762 11.5469 0.111328 11.6572C0.189907 11.8556 0.395167 11.9682 0.606445 11.9238H0.607422C0.607903 11.9237 0.615303 11.9215 0.634766 11.9082C0.653961 11.8951 0.680883 11.8733 0.719727 11.8379C0.797279 11.7672 0.916093 11.6478 1.10547 11.4482C1.4839 11.0495 2.13946 10.3368 3.2998 9.07031C4.45868 7.80199 5.11076 7.08551 5.47559 6.67188C5.65819 6.46484 5.76826 6.33486 5.83301 6.25C5.89931 6.16306 5.91026 6.13262 5.91211 6.12207L5.91309 6.12109C5.92923 6.02896 5.94224 6.00348 5.92578 5.94727Z" fill="#F9DCC4" stroke="#F9DCC4" stroke-width="0.133333"/>
</svg>
