<svg width="30" height="30" viewBox="0 0 30 30" fill="none" xmlns="http://www.w3.org/2000/svg">
<path d="M14.6535 29.8886C14.5277 29.8367 14.3723 29.6959 14.313 29.5773C14.2538 29.4661 13.8985 28.2873 13.521 26.9603C13.1435 25.6333 12.7068 24.2322 12.544 23.8467C11.4041 21.037 8.99846 18.6276 6.18573 17.4786C5.80083 17.3229 4.35005 16.8707 2.95109 16.4703C0.256787 15.6993 0.116151 15.6326 0.0125237 15.173C-0.0540936 14.869 0.15316 14.4687 0.441835 14.3353C0.57507 14.276 1.75938 13.9201 3.08432 13.542C4.40927 13.1639 5.80083 12.7266 6.18573 12.5709C9.00586 11.4144 11.3967 9.01985 12.544 6.20275C12.7068 5.81725 13.1435 4.41611 13.521 3.08911C13.8985 1.76211 14.2538 0.575963 14.313 0.442521C14.4463 0.153398 14.846 -0.0541776 15.1495 0.0125431C15.6084 0.116331 15.675 0.257186 16.4448 2.95567C17.2146 5.66157 17.5255 6.52894 18.088 7.51492C19.2649 9.57585 21.2042 11.3699 23.2916 12.3411C24.0762 12.7043 24.7275 12.9193 27.3108 13.6532C29.7238 14.3427 29.8867 14.4168 29.9903 14.8764C30.0421 15.1285 29.8793 15.5362 29.6646 15.6697C29.5832 15.7216 28.4581 16.0626 27.1628 16.4333C23.9874 17.3451 23.3804 17.5749 22.2553 18.2644C20.0643 19.621 18.3767 21.5856 17.4515 23.8541C17.296 24.2396 16.8593 25.6333 16.4818 26.9603C16.1043 28.2873 15.749 29.4661 15.6898 29.5773C15.5936 29.7774 15.2013 30.0072 14.9866 29.9998C14.9348 29.9924 14.7868 29.9479 14.6535 29.8886Z" fill="#161616"/>
</svg>
